<svg width="118" height="202" viewBox="0 0 118 202" fill="none" xmlns="http://www.w3.org/2000/svg">
<path d="M86.3989 200.425H1.43262L1.85958 115.459L30.8933 86.4248H116.287V170.964L86.3989 200.425Z" fill="#C8D4FA"/>
<path d="M1.85958 115.459L30.8933 86.4248H116.287V170.964L86.3989 200.425H1.43262L1.85958 115.459ZM86.3989 200.425V115.459M116.287 86.4248L86.3989 115.459M1.85958 115.459H86.3989" stroke="#003CFF" stroke-width="2.85"/>
<path d="M86.3989 115.425H1.43262L1.85958 30.4585L30.8933 1.4248H116.287V85.9641L86.3989 115.425Z" fill="#C8D4FA"/>
<path d="M1.85958 30.4585L30.8933 1.4248H116.287V85.9641L86.3989 115.425H1.43262L1.85958 30.4585ZM86.3989 115.425V30.4585M116.287 1.4248L86.3989 30.4585M1.85958 30.4585H86.3989" stroke="#003CFF" stroke-width="2.85"/>
</svg>
