<svg class="floor-svg" width="922" height="119" viewBox="0 0 922 119" fill="none" xmlns="http://www.w3.org/2000/svg" aria-hidden="true">
<g id="tile-0" class="floor-tile">
<path class="floor-tile__shape" d="M34.1829 86.4248H124.071L92.6099 116.987H3.62109L34.1829 86.4248Z" fill="#DEDEDE" stroke="#3E3E3E" stroke-width="3"/>
<path class="floor-tile__label" d="M49.4537 97.1749L46.9496 106.52H45.6146L47.8081 98.334H45.2131L45.8537 97.1749H49.4537ZM66.4714 99.3048C68.2564 99.3048 69.1446 100.189 68.7137 101.797L67.448 106.52H66.128L67.3005 102.145C67.6072 101 66.9636 100.435 65.9286 100.435C65.4036 100.435 64.9109 100.594 64.4505 100.913C63.9901 101.232 63.6864 101.637 63.5583 102.116L62.378 106.52H61.058L62.2305 102.145C62.5372 101 61.8936 100.435 60.8586 100.435C60.3336 100.435 59.8409 100.594 59.3655 100.913C58.9051 101.232 58.6014 101.637 58.4733 102.116L57.293 106.52H55.973L57.8676 99.4497H59.1276L59.0927 99.5801L58.9063 100.276C59.636 99.6235 60.5014 99.3048 61.4914 99.3048C62.6614 99.3048 63.3738 99.725 63.6175 100.551C64.1972 99.8988 65.2864 99.3048 66.4714 99.3048ZM74.5222 94.6538C75.0472 94.6538 75.4545 94.8132 75.7402 95.1465C76.0259 95.4797 76.1161 95.8709 75.9919 96.3346C75.8871 96.7258 75.655 97.088 75.288 97.4502C75.1064 97.6241 74.8115 97.8849 74.3922 98.2181L72.625 99.5511H75.205L74.9721 100.42H71.1021L71.3317 99.5076L72.3663 98.7252L73.5293 97.8559C73.9258 97.5516 74.2357 97.2908 74.4628 97.059C74.6899 96.8272 74.8231 96.6098 74.8814 96.3925C75.0095 95.9144 74.7315 95.5522 74.2065 95.5522C73.7265 95.5522 73.2434 95.8999 72.9991 96.3635L72.2645 95.9144C72.6947 95.2044 73.6072 94.6538 74.5222 94.6538Z" fill="black"/>
</g>
<g id="tile-1" class="floor-tile">
<path class="floor-tile__shape" d="M121.183 86.4248H211.071L179.61 116.987H90.6211L121.183 86.4248Z" fill="#DEDEDE" stroke="#3E3E3E" stroke-width="3"/>
<path class="floor-tile__label" d="M136.454 97.1749L133.95 106.52H132.615L134.808 98.334H132.213L132.854 97.1749H136.454ZM153.471 99.3048C155.256 99.3048 156.145 100.189 155.714 101.797L154.448 106.52H153.128L154.3 102.145C154.607 101 153.964 100.435 152.929 100.435C152.404 100.435 151.911 100.594 151.45 100.913C150.99 101.232 150.686 101.637 150.558 102.116L149.378 106.52H148.058L149.23 102.145C149.537 101 148.894 100.435 147.859 100.435C147.334 100.435 146.841 100.594 146.365 100.913C145.905 101.232 145.601 101.637 145.473 102.116L144.293 106.52H142.973L144.868 99.4497H146.128L146.093 99.5801L145.906 100.276C146.636 99.6235 147.501 99.3048 148.491 99.3048C149.661 99.3048 150.374 99.725 150.618 100.551C151.197 99.8988 152.286 99.3048 153.471 99.3048ZM161.522 94.6538C162.047 94.6538 162.455 94.8132 162.74 95.1465C163.026 95.4797 163.116 95.8709 162.992 96.3346C162.887 96.7258 162.655 97.088 162.288 97.4502C162.106 97.6241 161.811 97.8849 161.392 98.2181L159.625 99.5511H162.205L161.972 100.42H158.102L158.332 99.5076L159.366 98.7252L160.529 97.8559C160.926 97.5516 161.236 97.2908 161.463 97.059C161.69 96.8272 161.823 96.6098 161.881 96.3925C162.009 95.9144 161.732 95.5522 161.207 95.5522C160.727 95.5522 160.243 95.8999 159.999 96.3635L159.264 95.9144C159.695 95.2044 160.607 94.6538 161.522 94.6538Z" fill="black"/>
</g>
<g id="tile-2" class="floor-tile">
<path class="floor-tile__shape" d="M209.683 86.4248H299.571L268.11 116.987H179.121L209.683 86.4248Z" fill="#DEDEDE" stroke="#3E3E3E" stroke-width="3"/>
<path class="floor-tile__label" d="M224.954 97.1749L222.45 106.52H221.115L223.308 98.334H220.713L221.354 97.1749H224.954ZM241.971 99.3048C243.756 99.3048 244.645 100.189 244.214 101.797L242.948 106.52H241.628L242.8 102.145C243.107 101 242.464 100.435 241.429 100.435C240.904 100.435 240.411 100.594 239.95 100.913C239.49 101.232 239.186 101.637 239.058 102.116L237.878 106.52H236.558L237.73 102.145C238.037 101 237.394 100.435 236.359 100.435C235.834 100.435 235.341 100.594 234.865 100.913C234.405 101.232 234.101 101.637 233.973 102.116L232.793 106.52H231.473L233.368 99.4497H234.628L234.593 99.5801L234.406 100.276C235.136 99.6235 236.001 99.3048 236.991 99.3048C238.161 99.3048 238.874 99.725 239.118 100.551C239.697 99.8988 240.786 99.3048 241.971 99.3048ZM250.022 94.6538C250.547 94.6538 250.955 94.8132 251.24 95.1465C251.526 95.4797 251.616 95.8709 251.492 96.3346C251.387 96.7258 251.155 97.088 250.788 97.4502C250.606 97.6241 250.311 97.8849 249.892 98.2181L248.125 99.5511H250.705L250.472 100.42H246.602L246.832 99.5076L247.866 98.7252L249.029 97.8559C249.426 97.5516 249.736 97.2908 249.963 97.059C250.19 96.8272 250.323 96.6098 250.381 96.3925C250.509 95.9144 250.232 95.5522 249.707 95.5522C249.227 95.5522 248.743 95.8999 248.499 96.3635L247.764 95.9144C248.195 95.2044 249.107 94.6538 250.022 94.6538Z" fill="black"/>
</g>
<g id="tile-3" class="floor-tile">
<path class="floor-tile__shape" d="M298.183 86.4248H388.071L356.61 116.987H267.621L298.183 86.4248Z" fill="#DEDEDE" stroke="#3E3E3E" stroke-width="3"/>
<path class="floor-tile__label" d="M313.454 97.1749L310.95 106.52H309.615L311.808 98.334H309.213L309.854 97.1749H313.454ZM330.471 99.3048C332.256 99.3048 333.145 100.189 332.714 101.797L331.448 106.52H330.128L331.3 102.145C331.607 101 330.964 100.435 329.929 100.435C329.404 100.435 328.911 100.594 328.45 100.913C327.99 101.232 327.686 101.637 327.558 102.116L326.378 106.52H325.058L326.23 102.145C326.537 101 325.894 100.435 324.859 100.435C324.334 100.435 323.841 100.594 323.365 100.913C322.905 101.232 322.601 101.637 322.473 102.116L321.293 106.52H319.973L321.868 99.4497H323.128L323.093 99.5801L322.906 100.276C323.636 99.6235 324.501 99.3048 325.491 99.3048C326.661 99.3048 327.374 99.725 327.618 100.551C328.197 99.8988 329.286 99.3048 330.471 99.3048ZM338.522 94.6538C339.047 94.6538 339.455 94.8132 339.74 95.1465C340.026 95.4797 340.116 95.8709 339.992 96.3346C339.887 96.7258 339.655 97.088 339.288 97.4502C339.106 97.6241 338.811 97.8849 338.392 98.2181L336.625 99.5511H339.205L338.972 100.42H335.102L335.332 99.5076L336.366 98.7252L337.529 97.8559C337.926 97.5516 338.236 97.2908 338.463 97.059C338.69 96.8272 338.823 96.6098 338.881 96.3925C339.009 95.9144 338.732 95.5522 338.207 95.5522C337.727 95.5522 337.243 95.8999 336.999 96.3635L336.264 95.9144C336.695 95.2044 337.607 94.6538 338.522 94.6538Z" fill="black"/>
</g>
<g id="tile-4" class="floor-tile">
<path class="floor-tile__shape" d="M386.683 86.4248H476.571L445.11 116.987H356.121L386.683 86.4248Z" fill="#DEDEDE" stroke="#3E3E3E" stroke-width="3"/>
<path class="floor-tile__label" d="M401.954 97.1749L399.45 106.52H398.115L400.308 98.334H397.713L398.354 97.1749H401.954ZM418.971 99.3048C420.756 99.3048 421.645 100.189 421.214 101.797L419.948 106.52H418.628L419.8 102.145C420.107 101 419.464 100.435 418.429 100.435C417.904 100.435 417.411 100.594 416.95 100.913C416.49 101.232 416.186 101.637 416.058 102.116L414.878 106.52H413.558L414.73 102.145C415.037 101 414.394 100.435 413.359 100.435C412.834 100.435 412.341 100.594 411.865 100.913C411.405 101.232 411.101 101.637 410.973 102.116L409.793 106.52H408.473L410.368 99.4497H411.628L411.593 99.5801L411.406 100.276C412.136 99.6235 413.001 99.3048 413.991 99.3048C415.161 99.3048 415.874 99.725 416.118 100.551C416.697 99.8988 417.786 99.3048 418.971 99.3048ZM427.022 94.6538C427.547 94.6538 427.955 94.8132 428.24 95.1465C428.526 95.4797 428.616 95.8709 428.492 96.3346C428.387 96.7258 428.155 97.088 427.788 97.4502C427.606 97.6241 427.311 97.8849 426.892 98.2181L425.125 99.5511H427.705L427.472 100.42H423.602L423.832 99.5076L424.866 98.7252L426.029 97.8559C426.426 97.5516 426.736 97.2908 426.963 97.059C427.19 96.8272 427.323 96.6098 427.381 96.3925C427.509 95.9144 427.232 95.5522 426.707 95.5522C426.227 95.5522 425.743 95.8999 425.499 96.3635L424.764 95.9144C425.195 95.2044 426.107 94.6538 427.022 94.6538Z" fill="black"/>
</g>
<g id="tile-5" class="floor-tile">
<path class="floor-tile__shape" d="M475.183 86.4248H565.071L533.61 116.987H444.621L475.183 86.4248Z" fill="#DEDEDE" stroke="#3E3E3E" stroke-width="3"/>
<path class="floor-tile__label" d="M490.454 97.1749L487.95 106.52H486.615L488.808 98.334H486.213L486.854 97.1749H490.454ZM507.471 99.3048C509.256 99.3048 510.145 100.189 509.714 101.797L508.448 106.52H507.128L508.3 102.145C508.607 101 507.964 100.435 506.929 100.435C506.404 100.435 505.911 100.594 505.45 100.913C504.99 101.232 504.686 101.637 504.558 102.116L503.378 106.52H502.058L503.23 102.145C503.537 101 502.894 100.435 501.859 100.435C501.334 100.435 500.841 100.594 500.365 100.913C499.905 101.232 499.601 101.637 499.473 102.116L498.293 106.52H496.973L498.868 99.4497H500.128L500.093 99.5801L499.906 100.276C500.636 99.6235 501.501 99.3048 502.491 99.3048C503.661 99.3048 504.374 99.725 504.618 100.551C505.197 99.8988 506.286 99.3048 507.471 99.3048ZM515.522 94.6538C516.047 94.6538 516.455 94.8132 516.74 95.1465C517.026 95.4797 517.116 95.8709 516.992 96.3346C516.887 96.7258 516.655 97.088 516.288 97.4502C516.106 97.6241 515.811 97.8849 515.392 98.2181L513.625 99.5511H516.205L515.972 100.42H512.102L512.332 99.5076L513.366 98.7252L514.529 97.8559C514.926 97.5516 515.236 97.2908 515.463 97.059C515.69 96.8272 515.823 96.6098 515.881 96.3925C516.009 95.9144 515.732 95.5522 515.207 95.5522C514.727 95.5522 514.243 95.8999 513.999 96.3635L513.264 95.9144C513.695 95.2044 514.607 94.6538 515.522 94.6538Z" fill="black"/>
</g>
<g id="tile-6" class="floor-tile">
<path class="floor-tile__shape" d="M562.183 86.4248H652.071L620.61 116.987H531.621L562.183 86.4248Z" fill="#DEDEDE" stroke="#3E3E3E" stroke-width="3"/>
<path class="floor-tile__label" d="M577.453 97.1749L574.949 106.52H573.614L575.808 98.334H573.213L573.853 97.1749H577.453ZM594.471 99.3048C596.256 99.3048 597.144 100.189 596.713 101.797L595.448 106.52H594.128L595.3 102.145C595.607 101 594.963 100.435 593.928 100.435C593.403 100.435 592.91 100.594 592.45 100.913C591.99 101.232 591.686 101.637 591.558 102.116L590.378 106.52H589.058L590.23 102.145C590.537 101 589.893 100.435 588.858 100.435C588.333 100.435 587.84 100.594 587.365 100.913C586.905 101.232 586.601 101.637 586.473 102.116L585.293 106.52H583.973L585.867 99.4497H587.127L587.092 99.5801L586.906 100.276C587.636 99.6235 588.501 99.3048 589.491 99.3048C590.661 99.3048 591.373 99.725 591.617 100.551C592.197 99.8988 593.286 99.3048 594.471 99.3048ZM602.522 94.6538C603.047 94.6538 603.454 94.8132 603.74 95.1465C604.025 95.4797 604.116 95.8709 603.991 96.3346C603.887 96.7258 603.655 97.088 603.287 97.4502C603.106 97.6241 602.811 97.8849 602.392 98.2181L600.625 99.5511H603.205L602.972 100.42H599.102L599.331 99.5076L600.366 98.7252L601.529 97.8559C601.925 97.5516 602.235 97.2908 602.462 97.059C602.689 96.8272 602.823 96.6098 602.881 96.3925C603.009 95.9144 602.731 95.5522 602.206 95.5522C601.726 95.5522 601.243 95.8999 600.999 96.3635L600.264 95.9144C600.694 95.2044 601.607 94.6538 602.522 94.6538Z" fill="black"/>
</g>
<g id="tile-7" class="floor-tile">
<path class="floor-tile__shape" d="M650.682 86.4248H740.57L709.109 116.987H620.121L650.682 86.4248Z" fill="#DEDEDE" stroke="#3E3E3E" stroke-width="3"/>
<path class="floor-tile__label" d="M665.953 97.1749L663.449 106.52H662.114L664.308 98.334H661.713L662.353 97.1749H665.953ZM682.971 99.3048C684.756 99.3048 685.644 100.189 685.213 101.797L683.948 106.52H682.628L683.8 102.145C684.107 101 683.463 100.435 682.428 100.435C681.903 100.435 681.41 100.594 680.95 100.913C680.49 101.232 680.186 101.637 680.058 102.116L678.878 106.52H677.558L678.73 102.145C679.037 101 678.393 100.435 677.358 100.435C676.833 100.435 676.34 100.594 675.865 100.913C675.405 101.232 675.101 101.637 674.973 102.116L673.793 106.52H672.473L674.367 99.4497H675.627L675.592 99.5801L675.406 100.276C676.136 99.6235 677.001 99.3048 677.991 99.3048C679.161 99.3048 679.873 99.725 680.117 100.551C680.697 99.8988 681.786 99.3048 682.971 99.3048ZM691.022 94.6538C691.547 94.6538 691.954 94.8132 692.24 95.1465C692.525 95.4797 692.616 95.8709 692.491 96.3346C692.387 96.7258 692.155 97.088 691.787 97.4502C691.606 97.6241 691.311 97.8849 690.892 98.2181L689.125 99.5511H691.705L691.472 100.42H687.602L687.831 99.5076L688.866 98.7252L690.029 97.8559C690.425 97.5516 690.735 97.2908 690.962 97.059C691.189 96.8272 691.323 96.6098 691.381 96.3925C691.509 95.9144 691.231 95.5522 690.706 95.5522C690.226 95.5522 689.743 95.8999 689.499 96.3635L688.764 95.9144C689.194 95.2044 690.107 94.6538 691.022 94.6538Z" fill="black"/>
</g>
<g id="tile-8" class="floor-tile">
<path class="floor-tile__shape" d="M739.182 86.4248H829.07L797.609 116.987H708.621L739.182 86.4248Z" fill="#DEDEDE" stroke="#3E3E3E" stroke-width="3"/>
<path class="floor-tile__label" d="M754.453 97.1749L751.949 106.52H750.614L752.808 98.334H750.213L750.853 97.1749H754.453ZM771.471 99.3048C773.256 99.3048 774.144 100.189 773.713 101.797L772.448 106.52H771.128L772.3 102.145C772.607 101 771.963 100.435 770.928 100.435C770.403 100.435 769.91 100.594 769.45 100.913C768.99 101.232 768.686 101.637 768.558 102.116L767.378 106.52H766.058L767.23 102.145C767.537 101 766.893 100.435 765.858 100.435C765.333 100.435 764.84 100.594 764.365 100.913C763.905 101.232 763.601 101.637 763.473 102.116L762.293 106.52H760.973L762.867 99.4497H764.127L764.092 99.5801L763.906 100.276C764.636 99.6235 765.501 99.3048 766.491 99.3048C767.661 99.3048 768.373 99.725 768.617 100.551C769.197 99.8988 770.286 99.3048 771.471 99.3048ZM779.522 94.6538C780.047 94.6538 780.454 94.8132 780.74 95.1465C781.025 95.4797 781.116 95.8709 780.991 96.3346C780.887 96.7258 780.655 97.088 780.287 97.4502C780.106 97.6241 779.811 97.8849 779.392 98.2181L777.625 99.5511H780.205L779.972 100.42H776.102L776.331 99.5076L777.366 98.7252L778.529 97.8559C778.925 97.5516 779.235 97.2908 779.462 97.059C779.689 96.8272 779.823 96.6098 779.881 96.3925C780.009 95.9144 779.731 95.5522 779.206 95.5522C778.726 95.5522 778.243 95.8999 777.999 96.3635L777.264 95.9144C777.694 95.2044 778.607 94.6538 779.522 94.6538Z" fill="black"/>
</g>
<g id="tile-9" class="floor-tile">
<path class="floor-tile__shape" d="M827.682 86.4248H917.57L886.109 116.987H797.121L827.682 86.4248Z" fill="#DEDEDE" stroke="#3E3E3E" stroke-width="3"/>
<path class="floor-tile__label" d="M842.953 97.1749L840.449 106.52H839.114L841.308 98.334H838.713L839.353 97.1749H842.953ZM859.971 99.3048C861.756 99.3048 862.644 100.189 862.213 101.797L860.948 106.52H859.628L860.8 102.145C861.107 101 860.463 100.435 859.428 100.435C858.903 100.435 858.41 100.594 857.95 100.913C857.49 101.232 857.186 101.637 857.058 102.116L855.878 106.52H854.558L855.73 102.145C856.037 101 855.393 100.435 854.358 100.435C853.833 100.435 853.34 100.594 852.865 100.913C852.405 101.232 852.101 101.637 851.973 102.116L850.793 106.52H849.473L851.367 99.4497H852.627L852.592 99.5801L852.406 100.276C853.136 99.6235 854.001 99.3048 854.991 99.3048C856.161 99.3048 856.873 99.725 857.117 100.551C857.697 99.8988 858.786 99.3048 859.971 99.3048ZM868.022 94.6538C868.547 94.6538 868.954 94.8132 869.24 95.1465C869.525 95.4797 869.616 95.8709 869.491 96.3346C869.387 96.7258 869.155 97.088 868.787 97.4502C868.606 97.6241 868.311 97.8849 867.892 98.2181L866.125 99.5511H868.705L868.472 100.42H864.602L864.831 99.5076L865.866 98.7252L867.029 97.8559C867.425 97.5516 867.735 97.2908 867.962 97.059C868.189 96.8272 868.323 96.6098 868.381 96.3925C868.509 95.9144 868.231 95.5522 867.706 95.5522C867.226 95.5522 866.743 95.8999 866.499 96.3635L865.764 95.9144C866.194 95.2044 867.107 94.6538 868.022 94.6538Z" fill="black"/>
</g>
</svg>
